{"title":"PassionHD - Locked Out (Veronica Radke)[06-11-2014].mp4","uid":15725612,"size":351910433,"categoryP":"porn","categoryS":"hd___movies","magnet":"?xt=urn:btih:39d2aa9d9e034bb871eccc6bdaf924c2c88365c9&amp;dn=PassionHD+-+Locked+Out+%28Veronica+Radke%29%5B06-11-2014%5D.mp4&amp;tr=udp%3A%2F%2Ftracker.leechers-paradise.org%3A6969&amp;tr=udp%3A%2F%2Fzer0day.ch%3A1337&amp;tr=udp%3A%2F%2Fopen.demonii.com%3A1337&amp;tr=udp%3A%2F%2Ftracker.coppersurfer.tk%3A6969&amp;tr=udp%3A%2F%2Fexodus.desync.com%3A6969","seeders":2,"leechers":0,"uploader":"freemetoo","files":1,"time":1472714985,"description":"General\r\nFormat                                   : MPEG-4\r\nFormat profile                           : Base Media\r\nCodec ID                                 : isom (isom/iso2/avc1/mp41)\r\nFile size                                : 336 MiB\r\nDuration                                 : 26mn 0s\r\nOverall bit rate                         : 1 804 Kbps\r\nWriting application                      : Lavf55.12.100\r\n\r\nVideo\r\nID                                       : 1\r\nFormat                                   : AVC\r\nFormat/Info                              : Advanced Video Codec\r\nFormat profile                           :   \r\nFormat settings, CABAC                   : No\r\nFormat settings, ReFrames                : 5 frames\r\nCodec ID                                 : avc1\r\nCodec ID/Info                            : Advanced Video Coding\r\nDuration                                 : 26mn 0s\r\nBit rate                                 : 1 672 Kbps\r\nWidth                                    : 852 pixels\r\nHeight                                   : 480 pixels\r\nDisplay aspect ratio                     : 16:9\r\nOriginal display aspect ratio            : 16:9\r\nFrame rate mode                          : Constant\r\nFrame rate                               : 23.976 (23976/1000) fps\r\nColor space                              : YUV\r\nChroma subsampling                       : 4:2:0\r\nBit depth                                : 8 bits\r\nScan type                                : Progressive\r\nBits/(Pixel*Frame)                       : 0.170\r\nStream size                              : 311 MiB (93%)\r\nWriting library                          : x264 core 138 r2358 9e941d1\r\nEncoding settings                        : cabac=0 / ref=5 / deblock=1:0:0 / analyse=0x1:0x111 / me=umh / subme=8 / psy=1 / psy_rd=1.00:0.00 / mixed_ref=1 / me_range=16 / chroma_me=1 / trellis=1 / 8x8dct=0 / cqm=0 / deadzone=21,11 / fast_pskip=1 / chroma_qp_offset=-2 / threads=2 / lookahead_threads=1 / sliced_threads=0 / nr=0 / decimate=1 / interlaced=0 / bluray_compat=0 / constrained_intra=0 / bframes=0 / weightp=0 / keyint=250 / keyint_min=23 / scenecut=40 / intra_refresh=0 / rc_lookahead=50 / rc=crf / mbtree=1 / crf=18.0 / qcomp=0.60 / qpmin=0 / qpmax=69 / qpstep=4 / ip_ratio=1.40 / aq=1:1.00\r\nLanguage                                 : English\r\n\r\nAudio\r\nID                                       : 2\r\nFormat                                   : AAC\r\nFormat/Info                              : Advanced Audio Codec\r\nFormat profile                           : LC\r\nCodec ID                                 : 40\r\nDuration                                 : 26mn 0s\r\nDuration_LastFrame                       : -11ms\r\nBit rate mode                            : Constant\r\nBit rate                                 : 128 Kbps\r\nChannel(s)                               : 2 channels\r\nChannel positions                        : Front: L R\r\nSampling rate                            : 44.1 KHz\r\nFrame rate                               : 43.066 fps (1024 spf)\r\nCompression mode                         : Lossy\r\nStream size                              : 23.8 MiB (7%)\r\nLanguage                                 : English\r\nDefault                                  : Yes\r\nAlternate group                          : 1","torrent":{"xt":"urn:btih:39d2aa9d9e034bb871eccc6bdaf924c2c88365c9","amp;dn":"PassionHD+-+Locked+Out+%28Veronica+Radke%29%5B06-11-2014%5D.mp4","amp;tr":["udp%3A%2F%2Ftracker.leechers-paradise.org%3A6969","udp%3A%2F%2Fzer0day.ch%3A1337","udp%3A%2F%2Fopen.demonii.com%3A1337","udp%3A%2F%2Ftracker.coppersurfer.tk%3A6969","udp%3A%2F%2Fexodus.desync.com%3A6969"],"infoHash":"39d2aa9d9e034bb871eccc6bdaf924c2c88365c9","infoHashBuffer":{"type":"Buffer","data":[57,210,170,157,158,3,75,184,113,236,204,107,218,249,36,194,200,131,101,201]},"announce":[],"urlList":[]}}